<svg id="Capa_1" data-name="Capa 1" xmlns="http://www.w3.org/2000/svg" xmlns:xlink="http://www.w3.org/1999/xlink" viewBox="0 0 1860.35 555.37"><defs><style>.cls-1,.cls-34{fill:none;}.cls-2{fill:url(#Degradado_sin_nombre_79);}.cls-3{fill:url(#Degradado_sin_nombre_79-2);}.cls-4{fill:url(#Degradado_sin_nombre_79-3);}.cls-5{fill:url(#Degradado_sin_nombre_79-4);}.cls-6{fill:url(#Degradado_sin_nombre_79-5);}.cls-7{fill:url(#Degradado_sin_nombre_79-6);}.cls-8{fill:url(#Degradado_sin_nombre_79-7);}.cls-9{fill:url(#Degradado_sin_nombre_79-8);}.cls-10{fill:url(#Degradado_sin_nombre_79-9);}.cls-11{fill:url(#Degradado_sin_nombre_79-10);}.cls-12{fill:url(#Degradado_sin_nombre_79-11);}.cls-13{fill:url(#Degradado_sin_nombre_79-12);}.cls-14{clip-path:url(#clip-path);}.cls-15{clip-path:url(#clip-path-2);}.cls-16{fill:url(#Degradado_sin_nombre_79-14);}.cls-17{clip-path:url(#clip-path-3);}.cls-18{clip-path:url(#clip-path-4);}.cls-19{fill:url(#Degradado_sin_nombre_79-16);}.cls-20{clip-path:url(#clip-path-5);}.cls-21{clip-path:url(#clip-path-6);}.cls-22{fill:url(#Degradado_sin_nombre_79-18);}.cls-23{clip-path:url(#clip-path-7);}.cls-24{clip-path:url(#clip-path-8);}.cls-25{fill:url(#Degradado_sin_nombre_79-20);}.cls-26{clip-path:url(#clip-path-9);}.cls-27{clip-path:url(#clip-path-10);}.cls-28{clip-path:url(#clip-path-11);}.cls-29{clip-path:url(#clip-path-12);}.cls-30{fill:url(#Degradado_sin_nombre_182);}.cls-31{fill:url(#Degradado_sin_nombre_182-2);}.cls-32{fill:url(#Degradado_sin_nombre_182-3);}.cls-33{fill:url(#Degradado_sin_nombre_182-4);}.cls-34{stroke:#00fff2;stroke-miterlimit:10;stroke-width:0.3px;}.cls-35{fill:#fff;}.cls-36{clip-path:url(#clip-path-13);}.cls-37{clip-path:url(#clip-path-14);}.cls-38{fill:url(#Degradado_sin_nombre_79-26);}.cls-39{clip-path:url(#clip-path-15);}.cls-40{clip-path:url(#clip-path-16);}.cls-41{fill:url(#Degradado_sin_nombre_79-28);}.cls-42{clip-path:url(#clip-path-17);}.cls-43{clip-path:url(#clip-path-18);}.cls-44{fill:url(#Degradado_sin_nombre_79-30);}.cls-45{clip-path:url(#clip-path-19);}.cls-46{clip-path:url(#clip-path-20);}.cls-47{fill:url(#Degradado_sin_nombre_79-32);}.cls-48{clip-path:url(#clip-path-21);}.cls-49{clip-path:url(#clip-path-22);}.cls-50{clip-path:url(#clip-path-23);}.cls-51{clip-path:url(#clip-path-24);}</style><linearGradient id="Degradado_sin_nombre_79" x1="2941.63" y1="311.39" x2="249.36" y2="217.26" gradientUnits="userSpaceOnUse"><stop offset="0" stop-color="#01737b"/><stop offset="0.12" stop-color="#036573"/><stop offset="0.27" stop-color="#035f72"/><stop offset="0.41" stop-color="#07536f"/><stop offset="0.56" stop-color="#004a6d"/><stop offset="0.71" stop-color="#04436d"/><stop offset="0.87" stop-color="#0d3551"/><stop offset="1" stop-color="#0a2a3d"/></linearGradient><linearGradient id="Degradado_sin_nombre_79-2" x1="2786.94" y1="312.13" x2="262.93" y2="223.88" xlink:href="#Degradado_sin_nombre_79"/><linearGradient id="Degradado_sin_nombre_79-3" x1="749.97" y1="311.39" x2="-1942.3" y2="217.26" xlink:href="#Degradado_sin_nombre_79"/><linearGradient id="Degradado_sin_nombre_79-4" x1="611.4" y1="315.75" x2="-1912.94" y2="227.48" xlink:href="#Degradado_sin_nombre_79"/><linearGradient id="Degradado_sin_nombre_79-5" x1="603.42" y1="312.13" x2="-1920.6" y2="223.88" xlink:href="#Degradado_sin_nombre_79"/><linearGradient id="Degradado_sin_nombre_79-6" x1="595.26" y1="312.13" x2="-1928.75" y2="223.88" xlink:href="#Degradado_sin_nombre_79"/><linearGradient id="Degradado_sin_nombre_79-7" x1="598.94" y1="312.13" x2="-1925.08" y2="223.88" xlink:href="#Degradado_sin_nombre_79"/><linearGradient id="Degradado_sin_nombre_79-8" x1="595.28" y1="312.13" x2="-1928.73" y2="223.88" xlink:href="#Degradado_sin_nombre_79"/><linearGradient id="Degradado_sin_nombre_79-9" x1="2803.06" y1="315.75" x2="278.72" y2="227.48" xlink:href="#Degradado_sin_nombre_79"/><linearGradient id="Degradado_sin_nombre_79-10" x1="2795.08" y1="312.13" x2="271.06" y2="223.88" xlink:href="#Degradado_sin_nombre_79"/><linearGradient id="Degradado_sin_nombre_79-11" x1="2786.92" y1="312.13" x2="262.91" y2="223.88" xlink:href="#Degradado_sin_nombre_79"/><linearGradient id="Degradado_sin_nombre_79-12" x1="2790.59" y1="312.13" x2="266.58" y2="223.88" xlink:href="#Degradado_sin_nombre_79"/><clipPath id="clip-path"><path class="cls-1" d="M645.36,111.84c64.83,0,113.54,33.42,113.54,102.27,0,68.44-48.71,106.69-113.54,106.69H599.87V444H524.18V111.84ZM621.21,260.4c29.79,0,58-10.06,58-43.88,0-34.22-28.18-44.29-58-44.29H599.87V260.4Z"/></clipPath><clipPath id="clip-path-2"><rect class="cls-2" x="190.87" y="41.3" width="2748.07" height="443.91"/></clipPath><linearGradient id="Degradado_sin_nombre_79-14" x1="2941.63" y1="311.39" x2="249.36" y2="217.26" xlink:href="#Degradado_sin_nombre_79"/><clipPath id="clip-path-3"><path class="cls-1" d="M791,111.84h66.81V444H791Z"/></clipPath><clipPath id="clip-path-4"><rect class="cls-10" x="224.05" y="57.69" width="2576.32" height="425.85"/></clipPath><linearGradient id="Degradado_sin_nombre_79-16" x1="2803.06" y1="315.75" x2="278.72" y2="227.48" xlink:href="#Degradado_sin_nombre_79"/><clipPath id="clip-path-5"><path class="cls-1" d="M985.24,237.15c26,0,47.56,8.69,63.42,24.16V237.26h66.8V444h-66V414.55h-.75c-14.35,15.86-37,27.56-63.42,27.56-56.61,0-96.25-45.67-96.25-102.29S928.63,237.15,985.24,237.15Zm20,148c26,0,44.91-18.87,44.91-45.29,0-26.8-20-45.67-44.91-45.67C980,294.15,960,313,960,339.82,960,366.24,978.07,385.11,1005.25,385.11Z"/></clipPath><clipPath id="clip-path-6"><rect class="cls-11" x="216.23" y="58.92" width="2576.32" height="416.17"/></clipPath><linearGradient id="Degradado_sin_nombre_79-18" x1="2795.08" y1="306.57" x2="271.06" y2="218.32" xlink:href="#Degradado_sin_nombre_79"/><clipPath id="clip-path-7"><path class="cls-1" d="M1152.59,237.26h66.81V263.2h.76c15.09-15.1,34.34-26,55.48-26,35.48,0,84.93,17.75,84.93,71.72V444h-66.81V327c0-19.25-13.21-37.75-34.73-37.75-20,0-39.63,18.5-39.63,37.75V444h-66.81Z"/></clipPath><clipPath id="clip-path-8"><rect class="cls-12" x="208.08" y="58.92" width="2576.32" height="416.17"/></clipPath><linearGradient id="Degradado_sin_nombre_79-20" x1="2786.92" y1="306.57" x2="262.91" y2="218.32" xlink:href="#Degradado_sin_nombre_79"/><clipPath id="clip-path-9"><path class="cls-1" d="M1461.23,348.88c0,29.82,24.91,40,41.89,40,21.51,0,31-4.15,47.18-21.52l48.32,24.16c-21.9,36.61-57.38,50.58-100.41,50.58-58.5,0-106.43-46.05-106.43-102.29,0-56.62,47.93-102.67,106.43-102.67,58.89,0,103.8,34.73,103.8,102.67a71.24,71.24,0,0,1-.37,9.06Zm75.49-37c-3-20.38-17-31.33-36.62-31.33-23,0-35.85,13.59-37,31.33Z"/></clipPath><clipPath id="clip-path-10"><rect class="cls-13" x="211.75" y="58.92" width="2576.32" height="416.17"/></clipPath><clipPath id="clip-path-11"><path class="cls-1" d="M1633.39,170.72h66.81v66.43h48.25v51H1700.2V355.3c0,18.11,4.53,26.79,15.1,26.79,8.68,0,16.6-6,16.6-6l16.61,54a110.52,110.52,0,0,1-49.07,12.08c-53.22,0-66-39.63-66-74V170.72Z"/></clipPath><clipPath id="clip-path-12"><rect class="cls-3" x="208.1" y="58.92" width="2576.32" height="416.17"/></clipPath><linearGradient id="Degradado_sin_nombre_182" x1="320.62" y1="415.35" x2="239.53" y2="317.82" gradientUnits="userSpaceOnUse"><stop offset="0" stop-color="#00764c"/><stop offset="0.24" stop-color="#00717a"/><stop offset="0.52" stop-color="#03536f"/><stop offset="0.76" stop-color="#05436e"/><stop offset="1" stop-color="#0a2a3d"/></linearGradient><linearGradient id="Degradado_sin_nombre_182-2" x1="179.84" y1="434.32" x2="220.39" y2="117.03" xlink:href="#Degradado_sin_nombre_182"/><linearGradient id="Degradado_sin_nombre_182-3" x1="243.54" y1="142.06" x2="319.34" y2="239.6" xlink:href="#Degradado_sin_nombre_182"/><linearGradient id="Degradado_sin_nombre_182-4" x1="393.79" y1="132.39" x2="317.41" y2="462.02" xlink:href="#Degradado_sin_nombre_182"/><clipPath id="clip-path-13"><path class="cls-1" d="M-1546.3,111.84c64.83,0,113.54,33.42,113.54,102.27,0,68.44-48.71,106.69-113.54,106.69h-45.49V444h-75.69V111.84Zm-24.15,148.56c29.79,0,58-10.06,58-43.88,0-34.22-28.18-44.29-58-44.29h-21.34V260.4Z"/></clipPath><clipPath id="clip-path-14"><rect class="cls-4" x="-2000.79" y="41.3" width="2748.07" height="443.91"/></clipPath><linearGradient id="Degradado_sin_nombre_79-26" x1="749.97" y1="311.39" x2="-1942.3" y2="217.26" xlink:href="#Degradado_sin_nombre_79"/><clipPath id="clip-path-15"><path class="cls-1" d="M-1400.69,111.84h66.81V444h-66.81Z"/></clipPath><clipPath id="clip-path-16"><rect class="cls-5" x="-1967.61" y="57.69" width="2576.32" height="425.85"/></clipPath><linearGradient id="Degradado_sin_nombre_79-28" x1="611.4" y1="315.75" x2="-1912.94" y2="227.48" xlink:href="#Degradado_sin_nombre_79"/><clipPath id="clip-path-17"><path class="cls-1" d="M-1206.42,237.15c26.05,0,47.56,8.69,63.42,24.16V237.26h66.8V444h-66V414.55h-.75c-14.35,15.86-37,27.56-63.42,27.56-56.61,0-96.24-45.67-96.24-102.29S-1263,237.15-1206.42,237.15Zm20,148c26,0,44.91-18.87,44.91-45.29,0-26.8-20-45.67-44.91-45.67-25.29,0-45.3,18.87-45.3,45.67C-1231.71,366.24-1213.59,385.11-1186.41,385.11Z"/></clipPath><clipPath id="clip-path-18"><rect class="cls-6" x="-1975.43" y="58.92" width="2576.32" height="416.17"/></clipPath><linearGradient id="Degradado_sin_nombre_79-30" x1="603.42" y1="306.57" x2="-1920.6" y2="218.32" xlink:href="#Degradado_sin_nombre_79"/><clipPath id="clip-path-19"><path class="cls-1" d="M-1039.07,237.26h66.81V263.2h.76c15.09-15.1,34.35-26,55.48-26,35.48,0,84.93,17.75,84.93,71.72V444H-897.9V327c0-19.25-13.21-37.75-34.73-37.75-20,0-39.63,18.5-39.63,37.75V444h-66.81Z"/></clipPath><clipPath id="clip-path-20"><rect class="cls-7" x="-1983.58" y="58.92" width="2576.32" height="416.17"/></clipPath><linearGradient id="Degradado_sin_nombre_79-32" x1="595.26" y1="306.57" x2="-1928.75" y2="218.32" xlink:href="#Degradado_sin_nombre_79"/><clipPath id="clip-path-21"><path class="cls-1" d="M-730.43,348.88c0,29.82,24.91,40,41.89,40,21.52,0,30.95-4.15,47.18-21.52L-593,391.53c-21.9,36.61-57.38,50.58-100.41,50.58-58.5,0-106.43-46.05-106.43-102.29,0-56.62,47.93-102.67,106.43-102.67,58.89,0,103.81,34.73,103.81,102.67a69.38,69.38,0,0,1-.38,9.06Zm75.49-37c-3-20.38-17-31.33-36.62-31.33-23,0-35.85,13.59-37,31.33Z"/></clipPath><clipPath id="clip-path-22"><rect class="cls-8" x="-1979.91" y="58.92" width="2576.32" height="416.17"/></clipPath><clipPath id="clip-path-23"><path class="cls-1" d="M-558.27,170.72h66.81v66.43h48.25v51h-48.25V355.3c0,18.11,4.53,26.79,15.1,26.79,8.68,0,16.6-6,16.6-6l16.61,54a110.52,110.52,0,0,1-49.07,12.08c-53.22,0-66-39.63-66-74V170.72Z"/></clipPath><clipPath id="clip-path-24"><rect class="cls-9" x="-1983.56" y="58.92" width="2576.32" height="416.17"/></clipPath></defs><g class="cls-14"><rect class="cls-2" x="190.87" y="41.3" width="2748.07" height="443.91"/><g class="cls-15"><rect class="cls-16" x="190.87" y="41.3" width="2748.07" height="443.91"/></g></g><g class="cls-17"><rect class="cls-10" x="224.05" y="57.69" width="2576.32" height="425.85"/><g class="cls-18"><rect class="cls-19" x="224.05" y="57.69" width="2576.32" height="425.85"/></g></g><g class="cls-20"><rect class="cls-11" x="216.23" y="58.92" width="2576.32" height="416.17"/><g class="cls-21"><rect class="cls-22" x="216.23" y="53.36" width="2576.32" height="416.17"/></g></g><g class="cls-23"><rect class="cls-12" x="208.08" y="58.92" width="2576.32" height="416.17"/><g class="cls-24"><rect class="cls-25" x="208.08" y="53.36" width="2576.32" height="416.17"/></g></g><g class="cls-26"><rect class="cls-13" x="211.75" y="58.92" width="2576.32" height="416.17"/><g class="cls-27"><rect class="cls-13" x="211.75" y="58.92" width="2576.32" height="416.17"/></g></g><g class="cls-28"><rect class="cls-3" x="208.1" y="58.92" width="2576.32" height="416.17"/><g class="cls-29"><rect class="cls-3" x="208.1" y="58.92" width="2576.32" height="416.17"/></g></g><path class="cls-30" d="M279.93,422.05A21.94,21.94,0,0,1,258,444c-.72,0-1.43,0-2.13-.1l-2-.28A165.45,165.45,0,0,1,210,430.86c-2.45-1.11-4.88-2.26-7.26-3.48a167,167,0,0,1-88.35-180.22c.49-2.55,1-5.08,1.64-7.6.45-1.88.93-3.74,1.45-5.6.69-2.48,1.44-4.93,2.23-7.35.2-.61.41-1.21.61-1.82l.63-1.81c.21-.6.43-1.2.65-1.79s.44-1.2.67-1.79.45-1.19.69-1.78.42-1.05.63-1.58l.19-.48c.44-1.08.9-2.15,1.36-3.21.25-.58.5-1.16.77-1.74s.51-1.15.78-1.72.53-1.15.8-1.72c.55-1.14,1.1-2.27,1.67-3.4.18-.37.37-.73.55-1.09s.41-.79.62-1.19c.91-1.75,1.87-3.49,2.85-5.21l.73-1.28.68-1.15,0,0c.32-.53.63-1.06,1-1.59l.15-.25c.32-.52.64-1,1-1.56s.68-1.1,1-1.64.54-.85.82-1.27l.89-1.35c.41-.61.82-1.22,1.24-1.82l0-.05c.47-.68.93-1.34,1.4-2s.81-1.13,1.22-1.69q1.68-2.33,3.47-4.59c.35-.46.73-.92,1.09-1.39l.18-.22c.48-.59,1-1.19,1.45-1.78l.21-.25c.45-.55.91-1.09,1.37-1.63s1.06-1.24,1.6-1.85,1.07-1.22,1.61-1.82l.33-.36,1.06-1.17,0-.05.62-.65.13-.14a81.25,81.25,0,0,1,81.16-21.84l0,0,.78.23.38.11.59.18.39.13.73.23-.94,1.18a1.53,1.53,0,0,0-.13.16c-1.88,2.37-5.69,7.17-6.47,8.17a0,0,0,0,0,0,0l-.08.09,0,.06h0l-1.25,1.69c-.57.78-1.13,1.57-1.68,2.35-1.06,1.51-2.08,3-3.09,4.55l-.92,1.42c-.6.92-1.19,1.85-1.76,2.78l-.1.17c-.31.49-.61,1-.92,1.49l-.94,1.58q-1.26,2.13-2.46,4.32c-.6,1.07-1.18,2.16-1.76,3.25-.26.51-.53,1-.79,1.54-.54,1-1.07,2.08-1.58,3.13s-1,2-1.44,3a.54.54,0,0,0-.07.13q-.74,1.6-1.44,3.21c-.25.54-.48,1.07-.71,1.62l-.69,1.61-.67,1.63c-.43,1.06-.84,2.11-1.25,3.17a.84.84,0,0,0,0,.12c-.21.55-.41,1.11-.62,1.65s-.42,1.11-.61,1.67c-.41,1.11-.8,2.22-1.17,3.35-.19.56-.38,1.12-.56,1.68q-.81,2.49-1.55,5c-.2.65-.39,1.31-.56,2-.31,1.07-.6,2.14-.88,3.21,0,0,0,0,0,.08a178.79,178.79,0,0,0,13.27,125.48l.16.29c.36.73.74,1.45,1.12,2.18l.22.41q.57,1.1,1.17,2.19c.42.78.85,1.56,1.29,2.33s.79,1.39,1.19,2.07c.22.39.45.77.68,1.15s.57,1,.86,1.44c.42.7.85,1.4,1.28,2.1.33.53.67,1.05,1,1.57.13.2.26.4.38.6l.82,1.25c.3.47.61.93.92,1.39l.47.7,1.09,1.59.5.72.91,1.29.73,1c.33.47.67.93,1,1.39l.58.77.87,1.16.85,1.11c.22.28.43.57.66.85.38.5.77,1,1.16,1.48q1.86,2.31,3.78,4.57c.45.53.9,1,1.35,1.56.59.67,1.19,1.36,1.8,2,1.16,1.28,2.33,2.55,3.53,3.8q2.07,2.18,4.21,4.27l1.6,1.55c.92.87,1.84,1.74,2.77,2.58l1.13,1,1.68,1.49h0c.47.42.95.83,1.43,1.24s.74.64,1.11.95c.59.5,1.19,1,1.78,1.48L264,399l.91.72,1.44,1.14.28.22c.65.5,1.3,1,2,1.49,0,0,0,0,0,0,.69.52,1.37,1,2.07,1.54l.46.34.5.38s0,0,.06,0A21.93,21.93,0,0,1,279.93,422.05Z"/><path class="cls-31" d="M296.19,220.8a80.92,80.92,0,0,1-10.64,40.3l-.13.22c-1.17,1.94-2.32,3.92-3.66,5.77-26,36.13-42.7,49-60.16,68-1.42,1.25-5,5.19-5,5.2-5.23,5.9-10.29,14.58-14.27,24.19,0,0,0,0,0,.05-8,19.22-4.76,46.82,7.66,66.29l-7.24-3.45A166.63,166.63,0,0,1,111.36,278.7q0-7.38.64-14.62c0-.63.11-1.25.17-1.88s.13-1.25.2-1.87c.2-1.83.42-3.65.69-5.46h0c0-.11,0-.23,0-.34.07-.53.15-1.07.24-1.6.2-1.29.42-2.58.64-3.86l.36-1.91c.24-1.28.5-2.55.77-3.81s.56-2.53.87-3.79c.12-.53.26-1.07.39-1.6l.22-.86.09-.35c.12-.47.24-.93.37-1.4s.25-.93.38-1.39q1-3.72,2.23-7.35c.2-.61.41-1.21.61-1.82l.63-1.81c.21-.6.43-1.2.65-1.79s.44-1.2.67-1.79.45-1.19.69-1.78.42-1.05.63-1.58l.19-.48c.44-1.08.9-2.15,1.36-3.21.25-.58.5-1.16.77-1.74s.51-1.15.78-1.72.53-1.15.8-1.72c.55-1.14,1.1-2.27,1.67-3.4.18-.37.37-.73.55-1.09s.41-.79.62-1.19c.91-1.75,1.87-3.49,2.85-5.21l.73-1.28.68-1.15,0,0c.32-.53.63-1.06,1-1.59l.15-.25c.32-.52.64-1,1-1.56s.68-1.1,1-1.64.54-.85.82-1.27l.89-1.35c.41-.61.82-1.22,1.24-1.82l0-.05c.47-.68.93-1.34,1.4-2s.81-1.13,1.22-1.69q1.68-2.33,3.47-4.59c.35-.46.73-.92,1.09-1.39l.18-.22c.48-.59,1-1.19,1.45-1.78l.21-.25c.45-.55.91-1.09,1.37-1.63s1.06-1.24,1.6-1.85,1.07-1.22,1.61-1.82l.18-.19a1.22,1.22,0,0,1,.15-.17l1.06-1.17,0-.05.62-.65.13-.14a81.25,81.25,0,0,1,81.16-21.84l0,0,.78.23.38.11.59.18.39.13.73.23.05,0A81.16,81.16,0,0,1,296.19,220.8Z"/><path class="cls-32" d="M275.91,135.26a21.94,21.94,0,0,1,21.95-21.94c.71,0,1.43,0,2.13.1l2,.28a165.13,165.13,0,0,1,43.92,12.76c2.45,1.1,4.88,2.25,7.27,3.47a166.94,166.94,0,0,1,88.34,180.23c-.48,2.54-1,5.07-1.63,7.59-.46,1.88-.94,3.74-1.46,5.6q-1,3.72-2.23,7.35c-.2.61-.4,1.21-.61,1.82s-.41,1.21-.63,1.81-.43,1.2-.65,1.79-.43,1.2-.67,1.79-.45,1.19-.68,1.78-.42,1.05-.64,1.58c-.06.16-.12.32-.19.48-.44,1.08-.89,2.15-1.36,3.21-.25.58-.5,1.16-.76,1.74s-.52,1.15-.79,1.72-.53,1.15-.8,1.72c-.54,1.14-1.1,2.28-1.67,3.4-.18.37-.36.73-.55,1.09l-.62,1.19q-1.37,2.63-2.85,5.21l-.73,1.28-.68,1.15,0,0c-.31.53-.63,1.06-.95,1.59l-.16.25c-.32.52-.63,1-1,1.56s-.69,1.1-1,1.64l-.83,1.27c-.29.45-.58.9-.89,1.35L415.21,373l0,0c-.46.68-.92,1.34-1.4,2s-.81,1.13-1.22,1.69c-1.12,1.55-2.28,3.08-3.46,4.59L408,382.7l-.17.22-1.46,1.78-.2.25-1.38,1.63c-.52.62-1,1.24-1.59,1.85s-1.07,1.22-1.62,1.82l-.32.36-1.07,1.17,0,.05c-.21.22-.41.44-.62.65l-.13.14a81.25,81.25,0,0,1-81.16,21.84h-.05l-.78-.24-.38-.11-.59-.18-.39-.13-.73-.23.94-1.18a1.53,1.53,0,0,0,.13-.16l6.48-8.16,0,0,.07-.09.05-.06h0l1.25-1.69c.57-.78,1.13-1.57,1.69-2.35,1.05-1.51,2.08-3,3.09-4.55.31-.47.61-.95.91-1.42.61-.92,1.19-1.85,1.76-2.78a1,1,0,0,0,.11-.17l.91-1.49c.32-.52.63-1.05.94-1.58q1.26-2.13,2.47-4.32c.59-1.07,1.18-2.16,1.75-3.25.27-.51.53-1,.79-1.54.55-1,1.07-2.08,1.58-3.13s1-2,1.45-3l.06-.13c.49-1.07,1-2.14,1.45-3.21.24-.54.48-1.07.7-1.62l.69-1.61c.23-.54.45-1.09.67-1.63.43-1.06.84-2.11,1.25-3.17a.84.84,0,0,0,0-.12l.62-1.65c.22-.56.42-1.11.61-1.67.41-1.11.8-2.22,1.17-3.35.2-.56.38-1.12.56-1.68q.81-2.49,1.56-5c.19-.65.38-1.31.56-2q.45-1.61.87-3.21a.24.24,0,0,0,0-.08,179.92,179.92,0,0,0,1.05-86.06A176.25,176.25,0,0,0,339.26,217l-.15-.3c-.37-.73-.75-1.45-1.13-2.18l-.22-.41q-.57-1.09-1.17-2.19c-.42-.78-.85-1.56-1.29-2.33s-.79-1.39-1.19-2.07c-.22-.39-.44-.77-.67-1.15s-.58-1-.87-1.44c-.42-.7-.85-1.4-1.28-2.1-.33-.53-.66-1-1-1.57l-.38-.6c-.27-.42-.54-.84-.82-1.25s-.61-.93-.92-1.39c-.15-.24-.31-.47-.47-.7-.35-.53-.72-1.06-1.09-1.59l-.5-.72-.91-1.29-.72-1-1-1.39-.58-.77c-.28-.39-.58-.78-.87-1.16l-.85-1.11c-.21-.28-.43-.57-.66-.85-.38-.5-.77-1-1.16-1.48q-1.84-2.31-3.78-4.57c-.45-.53-.9-1-1.35-1.56-.59-.67-1.19-1.36-1.8-2q-1.73-1.93-3.53-3.81-2.07-2.17-4.21-4.27l-1.6-1.55c-.91-.87-1.84-1.74-2.77-2.58l-1.12-1c-.56-.5-1.12-1-1.69-1.49h0l-1.43-1.24-1.12-.95c-.59-.5-1.18-1-1.78-1.48l-1.3-1.07-.9-.71-1.45-1.15-.28-.22c-.64-.5-1.3-1-2-1.49v0l-2.07-1.54-.47-.34-.5-.38-.05,0A21.91,21.91,0,0,1,275.91,135.26Z"/><path class="cls-33" d="M259.65,336.51a80.92,80.92,0,0,1,10.64-40.3l.13-.22c1.18-1.94,2.33-3.91,3.66-5.77,26-36.13,42.71-49,60.16-68,1.43-1.25,5-5.19,5-5.19,5.24-5.91,10.3-14.59,14.27-24.2l0,0c7.95-19.22,4.75-46.82-7.67-66.28,0,0,7.26,3.45,7.25,3.44a166.63,166.63,0,0,1,91.35,148.71q0,7.39-.63,14.62c-.06.63-.11,1.25-.18,1.88s-.13,1.25-.19,1.88c-.21,1.82-.43,3.64-.69,5.45h0c0,.11,0,.23,0,.34-.07.53-.15,1.07-.23,1.6-.2,1.29-.42,2.58-.65,3.86-.11.64-.24,1.28-.36,1.92-.23,1.27-.5,2.54-.77,3.8s-.56,2.53-.86,3.79c-.13.53-.27,1.07-.4,1.6l-.22.86c0,.12-.05.23-.09.35l-.36,1.4-.39,1.39q-1,3.72-2.23,7.35c-.2.61-.4,1.21-.61,1.82s-.41,1.21-.63,1.81-.43,1.2-.65,1.79-.43,1.2-.67,1.79-.45,1.19-.68,1.78-.42,1.05-.64,1.58c-.06.16-.12.32-.19.48-.44,1.08-.89,2.15-1.36,3.21-.25.58-.5,1.16-.76,1.74s-.52,1.15-.79,1.72-.53,1.15-.8,1.72c-.54,1.14-1.1,2.28-1.67,3.4-.18.37-.36.73-.55,1.09l-.62,1.19q-1.37,2.63-2.85,5.21l-.73,1.28-.68,1.15,0,0c-.31.53-.63,1.06-.95,1.59l-.16.25c-.32.52-.63,1-1,1.56s-.69,1.1-1,1.64l-.83,1.27c-.29.45-.58.9-.89,1.35L415.21,373l0,0c-.46.68-.92,1.34-1.4,2s-.81,1.13-1.22,1.69c-1.12,1.55-2.28,3.08-3.46,4.59L408,382.7l-.17.22-1.46,1.78-.2.25-1.38,1.63c-.52.62-1,1.24-1.59,1.85s-1.07,1.22-1.62,1.82l-.18.19c0,.06-.1.12-.14.17l-1.07,1.17,0,.05c-.21.22-.41.44-.62.65l-.13.14a81.25,81.25,0,0,1-81.16,21.84h-.05l-.78-.24-.38-.11-.59-.18-.39-.13-.73-.23,0,0A81.16,81.16,0,0,1,259.65,336.51Z"/><path class="cls-34" d="M223.64,333.29c-.69.59-1.37,1.21-2,1.84.08.18.16.36.23.54"/><path class="cls-35" d="M103.44,250.18l-1.81-.93c1.42.71,2.72,1.38,3.8,1.93l.75.39,1,.53.8.43.16.08L105,251Z"/><g class="cls-36"><rect class="cls-4" x="-2000.79" y="41.3" width="2748.07" height="443.91"/><g class="cls-37"><rect class="cls-38" x="-2000.79" y="41.3" width="2748.07" height="443.91"/></g></g><g class="cls-39"><rect class="cls-5" x="-1967.61" y="57.69" width="2576.32" height="425.85"/><g class="cls-40"><rect class="cls-41" x="-1967.61" y="57.69" width="2576.32" height="425.85"/></g></g><g class="cls-42"><rect class="cls-6" x="-1975.43" y="58.92" width="2576.32" height="416.17"/><g class="cls-43"><rect class="cls-44" x="-1975.43" y="53.36" width="2576.32" height="416.17"/></g></g><g class="cls-45"><rect class="cls-7" x="-1983.58" y="58.92" width="2576.32" height="416.17"/><g class="cls-46"><rect class="cls-47" x="-1983.58" y="53.36" width="2576.32" height="416.17"/></g></g><g class="cls-48"><rect class="cls-8" x="-1979.91" y="58.92" width="2576.32" height="416.17"/><g class="cls-49"><rect class="cls-8" x="-1979.91" y="58.92" width="2576.32" height="416.17"/></g></g><g class="cls-50"><rect class="cls-9" x="-1983.56" y="58.92" width="2576.32" height="416.17"/><g class="cls-51"><rect class="cls-9" x="-1983.56" y="58.92" width="2576.32" height="416.17"/></g></g></svg>