<svg xmlns="http://www.w3.org/2000/svg" xmlns:xlink="http://www.w3.org/1999/xlink" viewBox="0 0 1837.77 645.22"><defs><style>.cls-1{fill:#fff;}.cls-2{isolation:isolate;}.cls-3{clip-path:url(#clip-path);}.cls-4{clip-path:url(#clip-path-2);}.cls-5{clip-path:url(#clip-path-3);}.cls-6{clip-path:url(#clip-path-4);}.cls-7{clip-path:url(#clip-path-5);}.cls-8{clip-path:url(#clip-path-6);}.cls-9{clip-path:url(#clip-path-7);}.cls-10{clip-path:url(#clip-path-8);}.cls-11{clip-path:url(#clip-path-9);}.cls-12{clip-path:url(#clip-path-10);}.cls-13{clip-path:url(#clip-path-11);}.cls-14{clip-path:url(#clip-path-12);}.cls-15{clip-path:url(#clip-path-13);}.cls-16{clip-path:url(#clip-path-14);}.cls-17{clip-path:url(#clip-path-15);}.cls-18{clip-path:url(#clip-path-16);}.cls-19{clip-path:url(#clip-path-17);}.cls-20{clip-path:url(#clip-path-18);}.cls-21{clip-path:url(#clip-path-19);}.cls-22{clip-path:url(#clip-path-20);}.cls-23{clip-path:url(#clip-path-21);}.cls-24{clip-path:url(#clip-path-22);}.cls-25{clip-path:url(#clip-path-23);}.cls-26{clip-path:url(#clip-path-24);}.cls-27,.cls-28,.cls-29,.cls-30,.cls-32{mix-blend-mode:multiply;}.cls-27,.cls-29{opacity:0.35;}.cls-27{fill:url(#Degradado_sin_nombre_189);}.cls-28,.cls-30,.cls-32{opacity:0.18;}.cls-28{fill:url(#Degradado_sin_nombre_189-2);}.cls-29{fill:url(#Degradado_sin_nombre_189-3);}.cls-30{fill:url(#Degradado_sin_nombre_189-4);}.cls-31{fill:none;stroke:#00fff2;stroke-miterlimit:10;stroke-width:0.31px;}.cls-32{fill:url(#Degradado_sin_nombre_189-5);}</style><clipPath id="clip-path"><path class="cls-1" d="M-1544.2,111.84c64.82,0,113.54,33.42,113.54,102.27,0,68.44-48.72,106.69-113.54,106.69h-45.49V444h-75.7V111.84Zm-24.16,148.56c29.79,0,58-10.06,58-43.88,0-34.22-28.19-44.29-58-44.29h-21.33V260.4Z"/></clipPath><clipPath id="clip-path-2"><rect class="cls-1" x="-1998.69" y="41.3" width="2748.07" height="443.91"/></clipPath><clipPath id="clip-path-3"><path class="cls-1" d="M-1398.59,111.84h66.81V444h-66.81Z"/></clipPath><clipPath id="clip-path-4"><rect class="cls-1" x="-1965.51" y="57.69" width="2576.32" height="425.85"/></clipPath><clipPath id="clip-path-5"><path class="cls-1" d="M-1204.32,237.15c26,0,47.55,8.69,63.41,24.16V237.26h66.81V444h-66.06V414.55h-.75c-14.34,15.86-37,27.56-63.41,27.56-56.62,0-96.25-45.67-96.25-102.29S-1260.94,237.15-1204.32,237.15Zm20,148c26,0,44.92-18.87,44.92-45.29,0-26.8-20-45.67-44.92-45.67-25.29,0-45.29,18.87-45.29,45.67C-1229.61,366.24-1211.49,385.11-1184.32,385.11Z"/></clipPath><clipPath id="clip-path-6"><rect class="cls-1" x="-1973.33" y="58.92" width="2576.32" height="416.17"/></clipPath><clipPath id="clip-path-7"><path class="cls-1" d="M-1037,237.26h66.81V263.2h.75c15.1-15.1,34.35-26,55.48-26,35.49,0,84.93,17.75,84.93,71.72V444h-66.81V327c0-19.25-13.21-37.75-34.72-37.75-20,0-39.63,18.5-39.63,37.75V444H-1037Z"/></clipPath><clipPath id="clip-path-8"><rect class="cls-1" x="-1981.49" y="58.92" width="2576.32" height="416.17"/></clipPath><clipPath id="clip-path-9"><path class="cls-1" d="M-728.34,348.88c0,29.82,24.91,40,41.9,40,21.51,0,31-4.15,47.18-21.52l48.31,24.16c-21.89,36.61-57.37,50.58-100.4,50.58-58.5,0-106.44-46.05-106.44-102.29,0-56.62,47.94-102.67,106.44-102.67,58.88,0,103.8,34.73,103.8,102.67a69.38,69.38,0,0,1-.38,9.06Zm75.49-37c-3-20.38-17-31.33-36.61-31.33-23,0-35.86,13.59-37,31.33Z"/></clipPath><clipPath id="clip-path-10"><rect class="cls-1" x="-1977.81" y="58.92" width="2576.32" height="416.17"/></clipPath><clipPath id="clip-path-11"><path class="cls-1" d="M-556.18,170.72h66.81v66.43h48.25v51h-48.25V355.3c0,18.11,4.53,26.79,15.1,26.79,8.68,0,16.61-6,16.61-6L-441,430a110.58,110.58,0,0,1-49.07,12.08c-53.22,0-66.06-39.63-66.06-74V170.72Z"/></clipPath><clipPath id="clip-path-12"><rect class="cls-1" x="-1981.47" y="58.92" width="2576.32" height="416.17"/></clipPath><clipPath id="clip-path-13"><path class="cls-1" d="M647.46,159.35c64.82,0,113.54,33.41,113.54,102.26,0,68.44-48.72,106.69-113.54,106.69H602V491.5h-75.7V159.35ZM623.3,307.91c29.79,0,58-10.06,58-43.88,0-34.23-28.19-44.29-58-44.29H602v88.17Z"/></clipPath><clipPath id="clip-path-14"><rect class="cls-1" x="192.97" y="88.8" width="2748.07" height="443.91"/></clipPath><clipPath id="clip-path-15"><path class="cls-1" d="M793.07,159.35h66.81V491.5H793.07Z"/></clipPath><clipPath id="clip-path-16"><rect class="cls-1" x="226.15" y="105.19" width="2576.32" height="425.85"/></clipPath><clipPath id="clip-path-17"><path class="cls-1" d="M987.34,284.66c26,0,47.55,8.68,63.41,24.15V284.76h66.81V491.5H1051.5V462.06h-.75c-14.35,15.85-37,27.55-63.41,27.55-56.62,0-96.25-45.67-96.25-102.29S930.72,284.66,987.34,284.66Zm20,148c26.05,0,44.92-18.87,44.92-45.3,0-26.79-20-45.67-44.92-45.67-25.29,0-45.29,18.88-45.29,45.67C962.05,413.75,980.17,432.62,1007.34,432.62Z"/></clipPath><clipPath id="clip-path-18"><rect class="cls-1" x="218.33" y="106.42" width="2576.32" height="416.17"/></clipPath><clipPath id="clip-path-19"><path class="cls-1" d="M1154.69,284.76h66.81V310.7h.75c15.1-15.1,34.35-26,55.48-26,35.49,0,84.93,17.74,84.93,71.71V491.5h-66.81v-117c0-19.25-13.21-37.74-34.72-37.74-20,0-39.63,18.49-39.63,37.74v117h-66.81Z"/></clipPath><clipPath id="clip-path-20"><rect class="cls-1" x="210.17" y="106.42" width="2576.32" height="416.17"/></clipPath><clipPath id="clip-path-21"><path class="cls-1" d="M1463.32,396.38c0,29.82,24.91,40,41.9,40,21.51,0,31-4.15,47.18-21.51L1600.71,439c-21.89,36.62-57.37,50.58-100.4,50.58-58.5,0-106.44-46.05-106.44-102.29,0-56.61,47.94-102.66,106.44-102.66,58.88,0,103.8,34.72,103.8,102.66a69.22,69.22,0,0,1-.38,9.06Zm75.49-37c-3-20.38-17-31.32-36.61-31.32-23,0-35.86,13.58-37,31.32Z"/></clipPath><clipPath id="clip-path-22"><rect class="cls-1" x="213.85" y="106.42" width="2576.32" height="416.17"/></clipPath><clipPath id="clip-path-23"><path class="cls-1" d="M1635.48,218.23h66.81v66.43h48.25v50.95h-48.25V402.8c0,18.12,4.53,26.8,15.1,26.8,8.68,0,16.6-6,16.6-6l16.61,54a110.51,110.51,0,0,1-49.06,12.08c-53.23,0-66.06-39.63-66.06-74V218.23Z"/></clipPath><clipPath id="clip-path-24"><rect class="cls-1" x="210.19" y="106.42" width="2576.32" height="416.17"/></clipPath><linearGradient id="Degradado_sin_nombre_189" x1="264.25" y1="493.24" x2="194.87" y2="399.44" gradientUnits="userSpaceOnUse"><stop offset="0" stop-color="#fff" stop-opacity="0"/><stop offset="0.96"/></linearGradient><linearGradient id="Degradado_sin_nombre_189-2" x1="193.31" y1="424.81" x2="215.51" y2="193.36" xlink:href="#Degradado_sin_nombre_189"/><linearGradient id="Degradado_sin_nombre_189-3" x1="278.36" y1="211.17" x2="360.78" y2="211.17" xlink:href="#Degradado_sin_nombre_189"/><linearGradient id="Degradado_sin_nombre_189-4" x1="415.74" y1="256.82" x2="290.86" y2="411.12" xlink:href="#Degradado_sin_nombre_189"/><linearGradient id="Degradado_sin_nombre_189-5" x1="112.93" y1="390.26" x2="205.62" y2="390.26" xlink:href="#Degradado_sin_nombre_189"/></defs><g class="cls-2"><g id="Capa_1" data-name="Capa 1"><path class="cls-1" d="M-1544.2,111.84c64.82,0,113.54,33.42,113.54,102.27,0,68.44-48.72,106.69-113.54,106.69h-45.49V444h-75.7V111.84Zm-24.16,148.56c29.79,0,58-10.06,58-43.88,0-34.22-28.19-44.29-58-44.29h-21.33V260.4Z"/><g class="cls-3"><rect class="cls-1" x="-1998.69" y="41.3" width="2748.07" height="443.91"/><g class="cls-4"><rect class="cls-1" x="-1998.69" y="41.3" width="2748.07" height="443.91"/></g></g><path class="cls-1" d="M-1398.59,111.84h66.81V444h-66.81Z"/><g class="cls-5"><rect class="cls-1" x="-1965.51" y="57.69" width="2576.32" height="425.85"/><g class="cls-6"><rect class="cls-1" x="-1965.51" y="57.69" width="2576.32" height="425.85"/></g></g><path class="cls-1" d="M-1204.32,237.15c26,0,47.55,8.69,63.41,24.16V237.26h66.81V444h-66.06V414.55h-.75c-14.34,15.86-37,27.56-63.41,27.56-56.62,0-96.25-45.67-96.25-102.29S-1260.94,237.15-1204.32,237.15Zm20,148c26,0,44.92-18.87,44.92-45.29,0-26.8-20-45.67-44.92-45.67-25.29,0-45.29,18.87-45.29,45.67C-1229.61,366.24-1211.49,385.11-1184.32,385.11Z"/><g class="cls-7"><rect class="cls-1" x="-1973.33" y="58.92" width="2576.32" height="416.17"/><g class="cls-8"><rect class="cls-1" x="-1973.33" y="53.36" width="2576.32" height="416.17"/></g></g><path class="cls-1" d="M-1037,237.26h66.81V263.2h.75c15.1-15.1,34.35-26,55.48-26,35.49,0,84.93,17.75,84.93,71.72V444h-66.81V327c0-19.25-13.21-37.75-34.72-37.75-20,0-39.63,18.5-39.63,37.75V444H-1037Z"/><g class="cls-9"><rect class="cls-1" x="-1981.49" y="58.92" width="2576.32" height="416.17"/><g class="cls-10"><rect class="cls-1" x="-1981.49" y="53.36" width="2576.32" height="416.17"/></g></g><path class="cls-1" d="M-728.34,348.88c0,29.82,24.91,40,41.9,40,21.51,0,31-4.15,47.18-21.52l48.31,24.16c-21.89,36.61-57.37,50.58-100.4,50.58-58.5,0-106.44-46.05-106.44-102.29,0-56.62,47.94-102.67,106.44-102.67,58.88,0,103.8,34.73,103.8,102.67a69.38,69.38,0,0,1-.38,9.06Zm75.49-37c-3-20.38-17-31.33-36.61-31.33-23,0-35.86,13.59-37,31.33Z"/><g class="cls-11"><rect class="cls-1" x="-1977.81" y="58.92" width="2576.32" height="416.17"/><g class="cls-12"><rect class="cls-1" x="-1977.81" y="58.92" width="2576.32" height="416.17"/></g></g><path class="cls-1" d="M-556.18,170.72h66.81v66.43h48.25v51h-48.25V355.3c0,18.11,4.53,26.79,15.1,26.79,8.68,0,16.61-6,16.61-6L-441,430a110.58,110.58,0,0,1-49.07,12.08c-53.22,0-66.06-39.63-66.06-74V170.72Z"/><g class="cls-13"><rect class="cls-1" x="-1981.47" y="58.92" width="2576.32" height="416.17"/><g class="cls-14"><rect class="cls-1" x="-1981.47" y="58.92" width="2576.32" height="416.17"/></g></g><path class="cls-1" d="M647.46,159.35c64.82,0,113.54,33.41,113.54,102.26,0,68.44-48.72,106.69-113.54,106.69H602V491.5h-75.7V159.35ZM623.3,307.91c29.79,0,58-10.06,58-43.88,0-34.23-28.19-44.29-58-44.29H602v88.17Z"/><g class="cls-15"><rect class="cls-1" x="192.97" y="88.8" width="2748.07" height="443.91"/><g class="cls-16"><rect class="cls-1" x="192.97" y="88.8" width="2748.07" height="443.91"/></g></g><path class="cls-1" d="M793.07,159.35h66.81V491.5H793.07Z"/><g class="cls-17"><rect class="cls-1" x="226.15" y="105.19" width="2576.32" height="425.85"/><g class="cls-18"><rect class="cls-1" x="226.15" y="105.19" width="2576.32" height="425.85"/></g></g><path class="cls-1" d="M987.34,284.66c26,0,47.55,8.68,63.41,24.15V284.76h66.81V491.5H1051.5V462.06h-.75c-14.35,15.85-37,27.55-63.41,27.55-56.62,0-96.25-45.67-96.25-102.29S930.72,284.66,987.34,284.66Zm20,148c26.05,0,44.92-18.87,44.92-45.3,0-26.79-20-45.67-44.92-45.67-25.29,0-45.29,18.88-45.29,45.67C962.05,413.75,980.17,432.62,1007.34,432.62Z"/><g class="cls-19"><rect class="cls-1" x="218.33" y="106.42" width="2576.32" height="416.17"/><g class="cls-20"><rect class="cls-1" x="218.33" y="100.86" width="2576.32" height="416.17"/></g></g><path class="cls-1" d="M1154.69,284.76h66.81V310.7h.75c15.1-15.1,34.35-26,55.48-26,35.49,0,84.93,17.74,84.93,71.71V491.5h-66.81v-117c0-19.25-13.21-37.74-34.72-37.74-20,0-39.63,18.49-39.63,37.74v117h-66.81Z"/><g class="cls-21"><rect class="cls-1" x="210.17" y="106.42" width="2576.32" height="416.17"/><g class="cls-22"><rect class="cls-1" x="210.17" y="100.86" width="2576.32" height="416.17"/></g></g><path class="cls-1" d="M1463.32,396.38c0,29.82,24.91,40,41.9,40,21.51,0,31-4.15,47.18-21.51L1600.71,439c-21.89,36.62-57.37,50.58-100.4,50.58-58.5,0-106.44-46.05-106.44-102.29,0-56.61,47.94-102.66,106.44-102.66,58.88,0,103.8,34.72,103.8,102.66a69.22,69.22,0,0,1-.38,9.06Zm75.49-37c-3-20.38-17-31.32-36.61-31.32-23,0-35.86,13.58-37,31.32Z"/><g class="cls-23"><rect class="cls-1" x="213.85" y="106.42" width="2576.32" height="416.17"/><g class="cls-24"><rect class="cls-1" x="213.85" y="106.42" width="2576.32" height="416.17"/></g></g><path class="cls-1" d="M1635.48,218.23h66.81v66.43h48.25v50.95h-48.25V402.8c0,18.12,4.53,26.8,15.1,26.8,8.68,0,16.6-6,16.6-6l16.61,54a110.51,110.51,0,0,1-49.06,12.08c-53.23,0-66.06-39.63-66.06-74V218.23Z"/><g class="cls-25"><rect class="cls-1" x="210.19" y="106.42" width="2576.32" height="416.17"/><g class="cls-26"><rect class="cls-1" x="210.19" y="106.42" width="2576.32" height="416.17"/></g></g><path class="cls-1" d="M105.54,297.68l-1.81-.92c1.42.71,2.72,1.37,3.79,1.93l.75.38c.39.2.73.37,1,.54l.8.42.17.09-3.19-1.64Z"/><path class="cls-1" d="M233.4,369.7l-1.82-.93c1.43.71,2.74,1.38,3.82,1.94l.75.39,1,.54.81.43.16.08L235,370.5Z"/><path class="cls-1" d="M282.4,469.44a22.06,22.06,0,0,1-22.06,22.06c-.73,0-1.44,0-2.14-.11l-2-.28a166.54,166.54,0,0,1-44.16-12.82c-2.46-1.11-4.9-2.27-7.3-3.5a167.86,167.86,0,0,1-88.81-181.18q.74-3.84,1.64-7.63c.46-1.89.94-3.77,1.46-5.63.69-2.49,1.45-5,2.25-7.4.2-.61.4-1.21.61-1.83s.41-1.21.63-1.81.43-1.21.65-1.81.44-1.19.68-1.79.45-1.2.69-1.79.42-1.06.63-1.59c.06-.16.13-.32.2-.48.44-1.08.9-2.16,1.36-3.23.25-.58.51-1.16.77-1.74s.52-1.17.79-1.74.53-1.15.81-1.73c.54-1.15,1.1-2.28,1.67-3.41.19-.37.37-.74.56-1.1s.41-.79.62-1.19q1.38-2.66,2.87-5.24c.24-.43.48-.86.73-1.29s.45-.77.69-1.16c0,0,0,0,0,0l1-1.59.16-.26c.32-.52.64-1,1-1.56s.69-1.11,1.05-1.66l.83-1.27c.29-.46.58-.91.89-1.36l1.24-1.83,0,0c.46-.68.93-1.34,1.4-2l1.23-1.7q1.69-2.34,3.48-4.61c.36-.47.74-.93,1.1-1.4a1.92,1.92,0,0,0,.18-.22c.48-.6,1-1.2,1.46-1.79l.21-.26,1.38-1.63c.53-.63,1.06-1.25,1.61-1.86s1.07-1.23,1.62-1.83l.33-.36,1.07-1.18,0-.05.62-.66.13-.13a81.73,81.73,0,0,1,81.59-22l.05,0,.79.23.38.12.59.18.4.13.72.23-.94,1.19-.13.15-6.51,8.21,0,0-.07.09-.05,0s0,0,0,0c-.42.56-.84,1.13-1.25,1.7-.57.78-1.14,1.57-1.69,2.36-1.06,1.51-2.09,3-3.11,4.58-.31.47-.62.94-.92,1.42-.61.93-1.2,1.86-1.77,2.8a1,1,0,0,0-.1.17c-.31.49-.62,1-.92,1.5s-.64,1-.95,1.58q-1.26,2.15-2.48,4.34c-.6,1.08-1.18,2.18-1.76,3.27-.27.52-.54,1-.8,1.55-.54,1.05-1.07,2.09-1.58,3.15s-1,2-1.46,3.05l-.06.14c-.49,1.07-1,2.14-1.45,3.22-.25.54-.49,1.08-.71,1.63s-.46,1.08-.7,1.62-.45,1.09-.67,1.64c-.43,1.06-.85,2.12-1.26,3.19a.76.76,0,0,0,0,.11c-.21.56-.42,1.12-.62,1.67s-.42,1.11-.62,1.67c-.41,1.12-.8,2.24-1.17,3.37-.2.56-.39,1.12-.56,1.69q-.83,2.51-1.57,5c-.19.66-.38,1.32-.56,2-.31,1.07-.6,2.15-.88,3.23,0,0,0,.05,0,.08a179.66,179.66,0,0,0,13.34,126.14l.16.29c.37.73.74,1.46,1.12,2.19l.23.42c.38.74.77,1.47,1.17,2.2s.86,1.57,1.31,2.35.78,1.38,1.19,2.08c.22.38.44.77.68,1.15s.57,1,.87,1.45c.42.7.85,1.41,1.29,2.1s.66,1.06,1,1.59c.13.2.26.4.38.6l.82,1.26c.31.47.61.93.93,1.39l.47.71,1.1,1.59c.16.25.33.49.5.73l.92,1.3.72,1c.34.47.68.94,1,1.4l.58.78c.28.39.58.77.87,1.16l.86,1.12c.21.28.43.57.66.85.38.5.77,1,1.17,1.49,1.24,1.55,2.5,3.08,3.8,4.59l1.35,1.57c.59.68,1.2,1.36,1.81,2q1.74,1.94,3.55,3.82,2.08,2.19,4.24,4.29c.53.53,1.07,1,1.61,1.56.91.88,1.84,1.75,2.78,2.59l1.13,1c.56.51,1.12,1,1.69,1.5h0c.48.42,1,.84,1.44,1.25s.74.64,1.12.95c.59.51,1.19,1,1.79,1.49l1.31,1.07.9.72c.48.4,1,.77,1.46,1.15a2.69,2.69,0,0,0,.28.22l2,1.51h0c.69.53,1.39,1,2.08,1.55l.47.34.51.39a.1.1,0,0,0,0,0A22,22,0,0,1,282.4,469.44Z"/><path class="cls-1" d="M205.66,475.25l6.08,2.89Q208.67,476.76,205.66,475.25Z"/><path class="cls-27" d="M282.4,469.44a22.06,22.06,0,0,1-22.06,22.06c-.72,0-1.44,0-2.14-.11l-2-.28a166.5,166.5,0,0,1-44.17-12.82c-12.48-19.57-15.69-47.32-7.7-66.64l0,0c4-9.66,9.08-18.39,14.34-24.32l.16.29c.36.73.74,1.46,1.12,2.19.08.14.15.28.22.42l1.18,2.2c.43.78.86,1.57,1.31,2.34s.78,1.39,1.19,2.08c.22.39.45.77.68,1.15s.57,1,.87,1.46c.42.7.85,1.41,1.29,2.1.33.53.66,1.06,1,1.59.13.2.26.4.38.6l.82,1.26.93,1.39.47.7c.36.54.73,1.07,1.1,1.6l.5.73c.3.43.61.87.92,1.29s.48.68.73,1,.67.93,1,1.39l.58.79.87,1.16.86,1.12c.21.28.43.57.66.85.38.5.78,1,1.17,1.48,1.24,1.56,2.5,3.09,3.8,4.6l1.35,1.57c.6.68,1.2,1.36,1.81,2,1.16,1.29,2.35,2.57,3.55,3.83q2.08,2.19,4.24,4.29c.53.53,1.07,1,1.61,1.56.91.88,1.84,1.75,2.78,2.59l1.13,1,1.69,1.5h0c.48.42,1,.83,1.44,1.24s.74.65,1.12,1c.59.51,1.19,1,1.79,1.49l1.31,1.07.9.72,1.46,1.15.28.22,2,1.51h0l2.08,1.55.47.34.51.38a.08.08,0,0,0,0,.05A22,22,0,0,1,282.4,469.44Z"/><path class="cls-1" d="M298.74,267.12a81.27,81.27,0,0,1-10.69,40.51l-.13.22c-1.18,2-2.34,3.94-3.68,5.8-26.18,36.32-42.93,49.22-60.48,68.4-1.43,1.26-5,5.22-5,5.23-5.26,5.94-10.35,14.66-14.34,24.33l0,0c-8,19.32-4.78,47.07,7.7,66.64l-7.28-3.46a167.53,167.53,0,0,1-91.84-149.51q0-7.43.64-14.69.08-.94.18-1.89c.06-.63.13-1.26.19-1.89q.3-2.75.69-5.48h0c0-.11,0-.23,0-.35.07-.53.15-1.07.24-1.6.2-1.29.42-2.59.65-3.88.11-.64.23-1.29.36-1.93.23-1.28.5-2.55.77-3.83s.57-2.54.87-3.8c.13-.54.26-1.08.4-1.61l.22-.87c0-.11,0-.23.09-.35.12-.47.24-.93.37-1.4s.25-.94.38-1.4c.69-2.49,1.43-5,2.25-7.4.2-.61.4-1.21.61-1.83s.41-1.21.63-1.81.43-1.21.65-1.81.44-1.19.68-1.79.45-1.2.69-1.79.42-1.06.63-1.59c.06-.16.13-.32.2-.48.44-1.08.9-2.16,1.36-3.23.25-.58.51-1.16.77-1.74s.52-1.17.79-1.74.53-1.15.81-1.73c.54-1.15,1.1-2.28,1.67-3.41.19-.37.37-.74.56-1.1s.41-.79.62-1.19q1.38-2.66,2.87-5.24c.24-.43.48-.86.73-1.29s.45-.77.69-1.16c0,0,0,0,0,0l1-1.59.16-.26c.32-.52.64-1,1-1.56s.69-1.11,1.05-1.66l.83-1.27c.29-.46.58-.91.89-1.36l1.24-1.83,0,0c.46-.68.93-1.34,1.4-2l1.23-1.7q1.69-2.34,3.48-4.61c.36-.47.74-.93,1.1-1.4a1.92,1.92,0,0,0,.18-.22c.48-.6,1-1.2,1.46-1.79l.21-.26,1.38-1.63c.53-.63,1.06-1.25,1.61-1.86s1.07-1.23,1.62-1.83l.18-.19a1.22,1.22,0,0,1,.15-.17l1.07-1.18,0-.05.62-.66.13-.13a81.73,81.73,0,0,1,81.59-22l.05,0,.79.23.38.12.59.18.4.13.72.23.05,0A81.58,81.58,0,0,1,298.74,267.12Z"/><path class="cls-28" d="M298.74,267.12a81.27,81.27,0,0,1-10.69,40.51l-.13.22c-1.18,2-2.34,3.94-3.68,5.8-26.18,36.32-42.93,49.22-60.48,68.4-1.43,1.26-5,5.22-5,5.23-5.26,5.94-10.35,14.66-14.34,24.33l0,0c-8,19.32-4.78,47.07,7.7,66.64l-7.28-3.46a167.53,167.53,0,0,1-91.84-149.51q0-7.43.64-14.69.08-.94.18-1.89c.06-.63.13-1.26.19-1.89q.3-2.75.69-5.48h0c0-.11,0-.23,0-.35.07-.53.15-1.07.24-1.6.2-1.29.42-2.59.65-3.88.11-.64.23-1.29.36-1.93.23-1.28.5-2.55.77-3.83s.57-2.54.87-3.8c.13-.54.26-1.08.4-1.61l.22-.87c0-.11,0-.23.09-.35.12-.47.24-.93.37-1.4s.25-.94.38-1.4c.69-2.49,1.43-5,2.25-7.4.2-.61.4-1.21.61-1.83s.41-1.21.63-1.81.43-1.21.65-1.81.44-1.19.68-1.79.45-1.2.69-1.79.42-1.06.63-1.59c.06-.16.13-.32.2-.48.44-1.08.9-2.16,1.36-3.23.25-.58.51-1.16.77-1.74s.52-1.17.79-1.74.53-1.15.81-1.73c.54-1.15,1.1-2.28,1.67-3.41.19-.37.37-.74.56-1.1s.41-.79.62-1.19q1.38-2.66,2.87-5.24c.24-.43.48-.86.73-1.29s.45-.77.69-1.16c0,0,0,0,0,0l1-1.59.16-.26c.32-.52.64-1,1-1.56s.69-1.11,1.05-1.66l.83-1.27c.29-.46.58-.91.89-1.36l1.24-1.83,0,0c.46-.68.93-1.34,1.4-2l1.23-1.7q1.69-2.34,3.48-4.61c.36-.47.74-.93,1.1-1.4a1.92,1.92,0,0,0,.18-.22c.48-.6,1-1.2,1.46-1.79l.21-.26,1.38-1.63c.53-.63,1.06-1.25,1.61-1.86s1.07-1.23,1.62-1.83l.18-.19a1.22,1.22,0,0,1,.15-.17l1.07-1.18,0-.05.62-.66.13-.13a81.73,81.73,0,0,1,81.59-22l.05,0,.79.23.38.12.59.18.4.13.72.23.05,0A81.58,81.58,0,0,1,298.74,267.12Z"/><path class="cls-1" d="M355.09,175.31,349,172.42C351.07,173.33,353.09,174.3,355.09,175.31Z"/><path class="cls-1" d="M348.7,172.27c12.49,19.56,15.7,47.32,7.71,66.64a.08.08,0,0,0,0,0c-4,9.67-9.08,18.39-14.35,24.33l-.15-.29c-.37-.73-.75-1.46-1.13-2.19-.08-.14-.15-.28-.22-.42-.39-.74-.78-1.47-1.18-2.2s-.85-1.57-1.3-2.35l-1.19-2.08-.68-1.15c-.28-.48-.58-1-.87-1.45-.42-.7-.86-1.41-1.29-2.1s-.67-1.06-1-1.59l-.39-.6c-.27-.42-.54-.84-.82-1.26s-.61-.93-.92-1.39c-.16-.24-.31-.47-.48-.71-.35-.53-.72-1.06-1.09-1.59l-.5-.73-.92-1.3-.73-1-1-1.4-.58-.78-.88-1.16-.85-1.12-.66-.85L322,232.07q-1.86-2.32-3.81-4.59c-.44-.53-.89-1-1.35-1.57-.59-.68-1.2-1.36-1.81-2q-1.74-1.94-3.54-3.82-2.08-2.19-4.24-4.29c-.53-.53-1.07-1-1.61-1.56-.92-.88-1.85-1.75-2.78-2.59l-1.13-1c-.57-.51-1.13-1-1.7-1.5h0l-1.44-1.25-1.12-.95c-.59-.51-1.19-1-1.79-1.49l-1.31-1.07c-.3-.25-.6-.49-.91-.72-.48-.4-1-.77-1.45-1.15a2.69,2.69,0,0,0-.28-.22c-.65-.51-1.31-1-2-1.51h0c-.69-.53-1.38-1-2.08-1.55l-.47-.34-.5-.39-.06,0a22.07,22.07,0,0,1,13.76-39.31c.72,0,1.44,0,2.14.11l2,.28A166.43,166.43,0,0,1,348.7,172.27Z"/><path class="cls-29" d="M348.7,172.27c12.49,19.56,15.7,47.32,7.71,66.64a.08.08,0,0,0,0,0c-4,9.67-9.08,18.39-14.35,24.33l-.15-.29c-.37-.73-.75-1.46-1.13-2.19-.08-.14-.15-.28-.22-.42-.39-.74-.78-1.47-1.18-2.2s-.85-1.57-1.3-2.35l-1.19-2.08-.68-1.15c-.28-.48-.58-1-.87-1.45-.42-.7-.86-1.41-1.29-2.1s-.67-1.06-1-1.59l-.39-.6c-.27-.42-.54-.84-.82-1.26s-.61-.93-.92-1.39c-.16-.24-.31-.47-.48-.71-.35-.53-.72-1.06-1.09-1.59l-.5-.73-.92-1.3-.73-1-1-1.4-.58-.78-.88-1.16-.85-1.12-.66-.85L322,232.07q-1.86-2.32-3.81-4.59c-.44-.53-.89-1-1.35-1.57-.59-.68-1.2-1.36-1.81-2q-1.74-1.94-3.54-3.82-2.08-2.19-4.24-4.29c-.53-.53-1.07-1-1.61-1.56-.92-.88-1.85-1.75-2.78-2.59l-1.13-1c-.57-.51-1.13-1-1.7-1.5h0l-1.44-1.25-1.12-.95c-.59-.51-1.19-1-1.79-1.49l-1.31-1.07c-.3-.25-.6-.49-.91-.72-.48-.4-1-.77-1.45-1.15a2.69,2.69,0,0,0-.28-.22c-.65-.51-1.31-1-2-1.51h0c-.69-.53-1.38-1-2.08-1.55l-.47-.34-.5-.39-.06,0a22.07,22.07,0,0,1,13.76-39.31c.72,0,1.44,0,2.14.11l2,.28A166.43,166.43,0,0,1,348.7,172.27Z"/><path class="cls-1" d="M404.68,437.47c-.08.09-.16.19-.25.28l.08-.09Z"/><path class="cls-1" d="M262,383.44a81.35,81.35,0,0,1,10.7-40.52l.13-.22c1.18-1.95,2.33-3.93,3.68-5.79,26.18-36.32,42.93-49.22,60.48-68.41,1.43-1.25,5-5.21,5-5.22,5.27-5.94,10.35-14.66,14.35-24.33a.08.08,0,0,1,0,0c8-19.32,4.78-47.07-7.71-66.64,0,0,7.3,3.47,7.28,3.46a167.53,167.53,0,0,1,91.84,149.51q0,7.42-.63,14.69c-.06.63-.11,1.26-.18,1.89s-.13,1.26-.2,1.89q-.3,2.75-.69,5.48h0c0,.11,0,.23,0,.35l-.24,1.6c-.2,1.29-.42,2.59-.65,3.88l-.36,1.93c-.24,1.28-.5,2.55-.78,3.83s-.56,2.54-.87,3.8l-.39,1.61-.22.87c0,.11-.06.23-.1.34-.11.48-.23.94-.36,1.41l-.39,1.4q-1,3.74-2.24,7.4c-.2.61-.41,1.21-.61,1.82l-.63,1.82c-.22.6-.44,1.21-.66,1.8s-.44,1.2-.67,1.8l-.69,1.79c-.21.53-.42,1.06-.64,1.59l-.19.48c-.44,1.08-.9,2.16-1.37,3.23-.25.58-.51,1.16-.77,1.74s-.52,1.17-.79,1.74-.53,1.15-.8,1.72q-.82,1.73-1.68,3.42c-.18.37-.37.74-.56,1.1l-.61,1.19q-1.38,2.65-2.87,5.24c-.24.43-.49.86-.74,1.29l-.68,1.16s0,0,0,0l-1,1.6-.16.26c-.32.52-.63,1-1,1.56s-.69,1.11-1,1.65-.55.86-.83,1.28-.59.91-.9,1.36l-1.24,1.83,0,.05c-.47.68-.93,1.34-1.41,2s-.81,1.14-1.22,1.7c-1.13,1.56-2.3,3.09-3.49,4.61-.36.47-.73.93-1.1,1.4l-.18.22c-.48.59-1,1.19-1.46,1.79l-.21.25c-.46.55-.91,1.1-1.38,1.64s-1.06,1.24-1.6,1.86-1.08,1.23-1.63,1.83a1.57,1.57,0,0,1-.18.19,1.15,1.15,0,0,1-.14.17L403.29,439l-.05,0-.62.66a1.79,1.79,0,0,1-.13.14,81.71,81.71,0,0,1-81.58,22l-.06,0-.78-.23-.39-.12-.59-.18-.39-.13-.73-.23-.05,0A81.59,81.59,0,0,1,262,383.44Z"/><path class="cls-30" d="M262,383.44a81.35,81.35,0,0,1,10.7-40.52l.13-.22c1.18-1.95,2.33-3.93,3.68-5.79,26.18-36.32,42.93-49.22,60.48-68.41,1.43-1.25,5-5.21,5-5.22,5.27-5.94,10.35-14.66,14.35-24.33a.08.08,0,0,1,0,0c8-19.32,4.78-47.07-7.71-66.64,0,0,7.3,3.47,7.28,3.46a167.53,167.53,0,0,1,91.84,149.51q0,7.42-.63,14.69c-.06.63-.11,1.26-.18,1.89s-.13,1.26-.2,1.89q-.3,2.75-.69,5.48h0c0,.11,0,.23,0,.35l-.24,1.6c-.2,1.29-.42,2.59-.65,3.88l-.36,1.93c-.24,1.28-.5,2.55-.78,3.83s-.56,2.54-.87,3.8l-.39,1.61-.22.87c0,.11-.06.23-.1.34-.11.48-.23.94-.36,1.41l-.39,1.4q-1,3.74-2.24,7.4c-.2.61-.41,1.21-.61,1.82l-.63,1.82c-.22.6-.44,1.21-.66,1.8s-.44,1.2-.67,1.8l-.69,1.79c-.21.53-.42,1.06-.64,1.59l-.19.48c-.44,1.08-.9,2.16-1.37,3.23-.25.58-.51,1.16-.77,1.74s-.52,1.17-.79,1.74-.53,1.15-.8,1.72q-.82,1.73-1.68,3.42c-.18.37-.37.74-.56,1.1l-.61,1.19q-1.38,2.65-2.87,5.24c-.24.43-.49.86-.74,1.29l-.68,1.16s0,0,0,0l-1,1.6-.16.26c-.32.52-.63,1-1,1.56s-.69,1.11-1,1.65-.55.86-.83,1.28-.59.91-.9,1.36l-1.24,1.83,0,.05c-.47.68-.93,1.34-1.41,2s-.81,1.14-1.22,1.7c-1.13,1.56-2.3,3.09-3.49,4.61-.36.47-.73.93-1.1,1.4l-.18.22c-.48.59-1,1.19-1.46,1.79l-.21.25c-.46.55-.91,1.1-1.38,1.64s-1.06,1.24-1.6,1.86-1.08,1.23-1.63,1.83a1.57,1.57,0,0,1-.18.19,1.15,1.15,0,0,1-.14.17L403.29,439l-.05,0-.62.66a1.79,1.79,0,0,1-.13.14,81.71,81.71,0,0,1-81.58,22l-.06,0-.78-.23-.39-.12-.59-.18-.39-.13-.73-.23-.05,0A81.59,81.59,0,0,1,262,383.44Z"/><path class="cls-1" d="M447.82,325.24q0,7.42-.63,14.69c-.06.63-.11,1.26-.18,1.89s-.13,1.26-.2,1.89-.11,1-.18,1.56a169.46,169.46,0,0,0,1.18-20A167.53,167.53,0,0,0,356,175.77l-.86-.44.84.4A167.53,167.53,0,0,1,447.82,325.24Z"/><path class="cls-31" d="M225.81,380.2c-.7.6-1.38,1.23-2.05,1.85.07.19.15.37.23.54"/><path class="cls-32" d="M204.75,474.79l.87.43-.85-.39a167.56,167.56,0,0,1-91.84-149.51q0-7.43.64-14.69c.06-.64.11-1.26.18-1.89s.13-1.26.19-1.89.12-1,.19-1.56a169.46,169.46,0,0,0-1.18,20A167.54,167.54,0,0,0,204.75,474.79Z"/><path class="cls-1" d="M103,296.72l-1.82-.94,3.82,2c.27.14.52.26.75.39l1,.53c.32.18.6.32.81.43l.16.09-3.21-1.65Z"/></g></g></svg>